<mxfile host="app.diagrams.net" modified="2024-04-18T04:59:29.218Z" agent="Mozilla/5.0 (Windows NT 10.0; Win64; x64) AppleWebKit/537.36 (KHTML, like Gecko) Chrome/123.0.0.0 Safari/537.36" etag="nQlxYogwAZR6qyDxEohk" version="24.2.5" type="device">
  <diagram name="Page-1" id="wSQD_T5J_68xLsdur7ff">
    <mxGraphModel dx="1050" dy="557" grid="1" gridSize="10" guides="1" tooltips="1" connect="1" arrows="1" fold="1" page="1" pageScale="1" pageWidth="850" pageHeight="1100" math="0" shadow="0">
      <root>
        <mxCell id="0" />
        <mxCell id="1" parent="0" />
        <mxCell id="gVovJuXM_Dd-oNRTgZEW-2" value="" style="rounded=0;whiteSpace=wrap;html=1;" vertex="1" parent="1">
          <mxGeometry x="20" y="20" width="810" height="440" as="geometry" />
        </mxCell>
        <mxCell id="gVovJuXM_Dd-oNRTgZEW-3" value="" style="rounded=0;whiteSpace=wrap;html=1;" vertex="1" parent="1">
          <mxGeometry x="20" y="20" width="810" height="60" as="geometry" />
        </mxCell>
        <mxCell id="gVovJuXM_Dd-oNRTgZEW-4" value="logo" style="rounded=1;whiteSpace=wrap;html=1;" vertex="1" parent="1">
          <mxGeometry x="50" y="30" width="110" height="40" as="geometry" />
        </mxCell>
        <mxCell id="gVovJuXM_Dd-oNRTgZEW-5" value="login" style="rounded=1;whiteSpace=wrap;html=1;" vertex="1" parent="1">
          <mxGeometry x="640" y="30" width="80" height="40" as="geometry" />
        </mxCell>
        <mxCell id="gVovJuXM_Dd-oNRTgZEW-6" value="tìm kiếm" style="rounded=1;whiteSpace=wrap;html=1;" vertex="1" parent="1">
          <mxGeometry x="730" y="30" width="80" height="40" as="geometry" />
        </mxCell>
        <mxCell id="gVovJuXM_Dd-oNRTgZEW-8" value="&lt;font style=&quot;font-size: 16px;&quot;&gt;CÁC SẢN PHẨM&lt;/font&gt;" style="rounded=0;whiteSpace=wrap;html=1;" vertex="1" parent="1">
          <mxGeometry x="20" y="80" width="810" height="220" as="geometry" />
        </mxCell>
        <mxCell id="gVovJuXM_Dd-oNRTgZEW-9" value="CÁC THÔNG TIN KIẾN THỨC VỀ NÓN BẢO HIỂM" style="rounded=0;whiteSpace=wrap;html=1;" vertex="1" parent="1">
          <mxGeometry x="20" y="300" width="810" height="160" as="geometry" />
        </mxCell>
      </root>
    </mxGraphModel>
  </diagram>
</mxfile>
